M48
INCH
T01C0.0150
T02C0.0400
T03C0.0300
T04C0.1259
T05C0.0350
T06C0.0600
T07C0.1120
T08C0.1180
T09C0.0910
T10C0.0500
%
T01
X-037750Y+018000
X-033275Y+021614
X-032750Y+025500
X-027750Y+024000
X-027000Y+020250
X-016000Y-009750
X-016000Y-006750
X-017250Y-001500
X+002000Y+008500
X+000500Y+008750
X+029601Y-012156
X+030500Y-014750
X+029750Y-013250
X+029500Y-013750
X+024941Y+010693
X+030500Y+018750
X+033000Y+018750
X+016750Y-000500
X+015160Y+009380
X+007802Y+006350
X+026750Y+006350
X+008250Y+006930
X+029500Y+000750
X+030000Y+001250
X+030250Y-000750
X+032055Y-003470
X+031036Y-003470
X-036300Y+025070
X-039250Y+023000
X-038750Y+021250
X-015250Y+003250
X-015250Y+004750
X-016750Y+027250
X+026000Y-003250
X+026000Y-011000
X-004250Y+009000
X+022500Y-003250
X-016250Y+015750
X-001250Y-009500
X-012000Y-028000
X-028000Y+021500
X-029500Y+020250
X-037500Y-016250
X+019493Y+027255
X+017090Y+027750
X+014580Y+028660
X-029419Y+006766
X-025250Y+008250
X+023570Y-023680
X-038530Y+022780
X-032500Y+008250
X-016250Y+008000
X-030000Y-014750
X-031500Y-012000
X-031750Y-012500
X-029500Y-015000
X-031250Y-016000
X-023000Y-012250
X-023500Y-009500
X-023750Y-012250
X-025000Y-011750
X-028750Y+008250
X-025500Y-009250
X-026000Y-012500
X-026570Y-009640
X-027000Y-011500
X-027500Y-011750
X-028000Y-009250
X-028500Y-009750
X-029250Y-012000
X-029750Y-009500
X-030250Y-011750
X-030500Y-009250
X-031000Y-013000
X-030312Y+006901
X-033818Y+006299
X-032250Y-009750
X-034094Y+006929
X-032992Y+006929
X-032500Y-011250
X-034404Y+007422
X-033313Y+007414
X-026466Y+012754
X-026004Y+012508
X-025219Y+010196
X-024782Y+009700
X-024356Y+009350
X-025219Y+009156
X-025912Y+009153
X-025662Y+012152
X-025317Y+011801
X-024959Y+011450
X-024621Y+011102
X-026269Y+011246
X-025116Y+010801
X-025819Y+010796
X-024769Y+010456
X+027000Y-016000
X-001500Y-032000
X-012250Y+028250
X-029750Y+016250
X-021280Y-022478
X-014992Y+022887
X+010750Y+018250
X-040630Y-015480
X-025530Y-027700
X-030118Y+012487
X-028901Y+012487
X-003750Y+000750
X-024750Y+009000
X-032750Y+008750
X+019500Y-003250
X+019246Y-011645
X+019246Y-009316
X-033250Y+014000
X-037750Y+014000
X-037750Y-005750
X-024500Y-009250
X-032250Y+020500
X-034009Y+015750
X-023551Y+012388
X-030568Y+003239
X-031169Y+008516
X-001250Y+007250
X+020250Y-024750
X+022750Y-010250
X-018750Y-003500
X-035106Y+001016
X+020000Y-025250
X+022640Y-009610
X+021323Y-008969
X-028630Y+014340
X-027752Y+014338
X-027500Y+023000
X-026920Y+028730
X-035080Y+025190
X-040000Y+022360
X-039250Y+021250
X-003750Y+009000
X-009439Y+022515
X+004310Y+026170
X-002940Y+022310
X+000320Y+022183
X+010500Y+025000
X+008050Y+025450
X+014250Y+026000
X+005525Y+024485
X-026500Y+023000
X-024010Y+020780
X-024821Y+013897
X-028704Y+020200
X-025460Y+014947
X-027683Y+020201
X-029750Y+019250
X-030000Y+024000
X-031779Y+021600
X+015960Y-001740
X+010330Y-005250
X+010005Y+007907
X+010580Y+005080
X+014850Y-017850
X+011770Y+007220
X+012090Y+002920
X-025930Y-022990
X-017250Y-011220
X-003743Y-001282
X-007150Y-005820
X-044190Y-014400
X-042020Y-019060
X-039344Y-010686
X-037936Y-009222
X-039075Y-011056
X-038355Y-011055
X-022462Y-009479
X-004223Y-026649
X+036970Y+015130
X-017000Y+020760
X-042750Y+018250
X-035250Y+018020
X-036558Y+018172
X-042350Y+013340
X-036500Y+016830
X-041000Y+002750
X-039860Y-005990
X-041460Y-018170
X-004994Y-024908
X+026467Y+009787
X+023750Y+015394
X+022430Y+011100
X+017875Y+011264
X+016276Y+008883
X+019212Y+017150
X+019212Y+017840
X+011010Y+019090
X+019750Y+001750
X+011500Y+026160
X+009881Y+025905
X-025000Y+021250
X-030000Y+025750
X-038250Y+021500
X-034500Y+022007
X-019000Y+004250
X-019220Y+020740
X-017250Y-004750
X-015826Y-004750
X-017145Y-005355
X-018203Y-006408
X-018124Y-006860
X-018077Y-005357
X-017750Y-001750
X-020250Y-004000
X-016750Y+004500
X-002250Y+007500
X-044437Y-001369
X-044409Y-003464
X-046573Y-002139
X-046573Y-006715
X-001250Y-010250
X-000750Y-014960
X-044250Y+001500
X-046120Y-006310
X-045600Y-008240
X-044740Y-012790
X-019500Y-008250
X-017750Y+002250
X-034738Y+017205
X-034282Y+018061
X-017250Y-008500
X-020250Y+015250
X-015650Y+018450
X-013000Y+015400
X-015500Y+019750
X-024545Y+025305
X-015196Y-001377
X-015500Y-008250
X-003750Y-004000
X-002750Y-007000
X+004629Y-004129
X-005230Y-033340
X-005166Y-035884
X+024760Y+002530
X-016691Y+007132
X-014770Y+007170
X-014700Y+010390
X+026500Y+004250
X+008750Y+005500
X+000885Y+025320
X+002340Y+009000
X+001364Y+009840
X+000677Y+010627
X+020114Y+010306
X+020650Y+015372
X+020650Y+017060
X+018685Y+005690
X+016750Y+001250
X+026870Y+002620
X+031000Y-002000
X+030030Y-002230
X+030000Y-001750
X+027750Y+004010
X+005065Y+006685
X+010416Y-015670
X-000536Y-026613
X-000570Y-024480
X+002810Y-008320
X+002822Y-009082
X+022750Y+002430
X-034795Y+001521
X-034677Y+002060
X-034574Y+002669
X-025380Y+014500
X-023390Y+011530
X-030511Y+015597
X-030489Y+014976
X-023500Y+001000
X-028960Y+005630
X-030118Y+008582
X-023390Y+003680
X-029448Y+008582
X-023309Y+004430
X-024010Y+002760
X-023790Y+005730
X-032152Y+012823
X-026750Y-003110
X-028723Y-001078
X-029936Y-000992
X-028757Y+001746
X-026110Y+025440
X-023730Y+002220
X-020983Y+004353
X-032000Y+015750
X-019500Y+014500
X-023503Y+020590
X-022674Y+020794
X-023434Y+022949
X-027703Y+026500
X-040250Y+020250
X-046419Y-018280
X-027250Y+024000
X-029210Y+028540
X-047000Y+005000
X-017500Y+016507
X-004273Y+016507
X-004268Y+014387
X-046500Y+001000
X-018000Y+010750
X+006930Y-016300
X+006750Y+001390
X+009660Y+001780
X+006273Y+001017
X+010750Y-009500
X+024494Y+019399
X+019500Y-017000
X+025500Y+021630
X+025050Y+021280
X+026100Y+020902
X+028380Y+019940
X+029897Y+019854
X+026000Y+020090
X+026000Y+015750
X+027062Y+020292
X+031362Y+018025
X+026125Y+023605
X+029070Y+023980
X+028030Y+021827
X+014853Y-021585
X+015508Y-021222
X+030800Y+001750
X+031541Y+007916
X+029762Y+003361
X+031535Y+003346
X+037570Y+007750
X+016534Y-028271
X+017780Y-026770
X+017000Y-023250
X+024500Y-026410
X-039500Y+017960
X-042160Y+020750
X-040933Y+019210
X-033295Y+027345
X-027730Y+027750
X-017793Y+029687
X+006352Y+029912
X-002000Y-034250
X+008982Y-027390
X+006250Y-028170
X-014250Y-025000
X-013180Y-025770
X+010750Y-022750
X+005250Y-035250
X+003020Y-034480
X+002060Y-025180
X+030654Y-015544
X+034058Y-016691
X+011980Y-022280
X+009520Y-037024
X+014560Y-035136
X+027140Y-034140
X+016750Y-014250
X+019094Y-016377
X+009063Y-016113
X+022106Y-015514
X+019020Y-026280
X+009282Y-029078
X+009282Y-032574
X+027642Y+007258
X+013050Y+007250
X+014200Y+001270
X-045700Y-009400
X-045103Y-007795
X-045682Y-006106
X-045682Y-003672
X-045800Y-012970
X-041750Y-002000
X-009250Y+011000
X-011630Y+008750
X-006000Y+009000
X-001851Y+022840
X+007190Y+022432
X-004295Y+022719
X-013547Y+021833
X+004990Y+024560
X+005426Y+023446
X+033702Y+014262
X+003000Y+026000
X+004200Y+027500
X+004990Y+029250
X-025930Y-019260
X-038000Y-018500
X-032250Y-018900
X-028680Y-015880
X-009460Y-030570
X-008024Y-015875
X-005880Y-018432
X-004797Y-023310
X-006536Y-017387
X-029957Y-020005
X-008624Y-022224
X-008420Y-014894
X-029940Y-017157
X-015170Y-019330
X-032500Y-018460
X-005865Y-020923
X-008020Y-021740
X-006529Y-021315
X-044030Y+010270
X-019250Y+026320
X+023732Y+019900
X+024633Y+021659
X+015510Y+011970
X-044000Y-001250
X-032315Y+022164
X+014212Y+018220
X-044000Y+000750
X-033410Y+022560
X+001250Y+015460
X-004750Y+015460
X-004750Y+011320
X-046141Y+003543
X-018460Y+016243
X-016750Y+016850
X+009960Y+005150
X+014780Y+012640
X+019760Y+012640
X+019763Y+015648
X+019763Y+016656
X+002430Y-005849
X+009680Y+012940
X+021780Y+013060
X+022250Y+013420
X-011420Y+016170
X+033512Y+010031
X+034975Y+008531
X+009320Y+014440
X+037480Y+014080
X-000430Y+016570
X+038050Y+014080
X+020270Y+016736
X+020260Y+015760
X+019620Y+011410
X+030270Y+015880
X+030270Y+012180
X+026019Y+011787
X+024060Y+011797
X-019812Y+016042
X-019825Y+020108
X-024780Y+020013
X-025240Y+019150
X-032500Y+018090
X-038250Y+012000
X+023496Y+027060
X+031500Y+011750
X+032170Y+018075
X+031260Y+019390
X+023110Y+017160
X+023110Y+013380
X+032882Y+012514
X+002250Y+011000
X-042000Y-001250
X-044067Y-013780
X-015380Y-018817
X-012510Y-008672
X-007390Y+000306
X-008136Y-001822
X-024417Y+010050
X-020368Y+004402
X-020357Y-002115
X-018547Y-002149
X-013660Y-000230
X-012500Y+000250
X-016750Y-003000
X-007000Y+006250
X-011000Y+005320
X-009942Y+001268
X-011520Y-008230
X-009932Y-007928
X-002000Y+005250
X-013200Y+006750
X-010250Y+006750
X-013490Y+005750
X-013584Y+002230
X-011990Y+012429
X-019000Y-008750
X-011728Y+001031
X-013280Y+001310
X-013268Y+005326
X-002750Y-002000
X-006900Y-003130
X+008484Y-000505
X-001496Y-004937
X-001485Y-001808
X+012640Y-017390
X+011320Y+007230
X+001980Y+007140
X+001980Y+006270
X+016480Y+005850
X+018244Y-017755
X-011620Y-001384
X-011610Y+000070
X-012010Y-000950
X-012040Y+000360
X-000850Y+005790
X-000226Y+006995
X+002110Y-007362
X-003238Y+004956
X-005107Y+004956
X-005500Y+007000
X-001062Y+001800
X-001026Y-007539
X+001102Y-009437
X+001118Y-034710
X+001087Y-035790
X-047940Y+000269
X-002755Y+006414
X+021000Y+002080
X-003450Y-008500
X-009443Y+002134
X+005750Y+001250
X-005849Y-023790
X-021998Y-031026
X-021998Y-027773
X-006519Y-022649
X-008030Y-024220
X-013246Y+006184
X-013936Y+001769
X-006560Y+001198
X-004000Y-007750
X-009491Y-010645
X-009990Y-024560
X-044587Y+014462
X-046245Y+014501
X-048392Y+023071
X-041100Y+029999
X-043750Y+016750
X-046000Y+016750
X-048875Y+023095
X-041390Y+030350
X+023440Y+024000
X+027000Y+021250
X-048150Y-003010
X-049470Y-003040
X-044635Y+024493
X-019887Y+026528
T02
X-021913Y-003438
X-021913Y-002438
X-021913Y-001438
X-021913Y-000438
X-021913Y+000561
X-021913Y+001561
X-021913Y+002561
X-021913Y+003561
X-021917Y+005549
X-021917Y+006549
X-021917Y+007549
X-021917Y+008549
X-021917Y+009549
X-021917Y+010549
X-021917Y+011549
X-021917Y+012549
X-040933Y+010549
X-040933Y+009549
X-040933Y+008549
X-040933Y+007549
X-040933Y+006549
X-040933Y+005549
X-040933Y+004549
X-040933Y+003549
X-040933Y+001549
X-040933Y+000549
X-040933Y-000450
X-040933Y-001450
X-040933Y-002450
X-040933Y-003450
X-040933Y-004450
X-040933Y-005450
X-021917Y+014172
X-021917Y+015172
X-021917Y+016172
X-021917Y+017172
X-021917Y+018172
X-021917Y+019172
X-021917Y+020172
X-021917Y+021172
X-040933Y+017549
X-040933Y+016549
X-040933Y+015549
X-040933Y+014549
X-040933Y+013549
X-040933Y+012549
X-021949Y-006453
X-021949Y-007453
X-022949Y-006453
X-022949Y-007453
X-023949Y-006453
X-023949Y-007453
X-024949Y-006453
X-024949Y-007453
X-025949Y-006453
X-025949Y-007453
X-026949Y-006453
X-026949Y-007453
X-027949Y-006453
X-027949Y-007453
X-028949Y-006453
X-028949Y-007453
X-029949Y-006453
X-029949Y-007453
X-030949Y-006453
X-030949Y-007453
X-031949Y-006453
X-031949Y-007453
X-032949Y-006453
X-032949Y-007453
X-033949Y-006453
X-033949Y-007453
X-034949Y-006453
X-034949Y-007453
X-035949Y-006453
X-035949Y-007453
X-036949Y-006453
X-036949Y-007453
X-037949Y-006453
X-037949Y-007453
X-038949Y-006453
X-038949Y-007453
X-029929Y+005456
X-029929Y+004456
X-030929Y+005456
X-030929Y+004456
X-031929Y+005456
X-031929Y+004456
X-003377Y-018850
X-003377Y-017850
X-003377Y-016850
X-003377Y-015850
X-003377Y-014850
X-003377Y-013850
X-003377Y-012850
X-003377Y-011850
X-003377Y-010850
X-003377Y-009850
X+002056Y+003927
X+002056Y+002927
X+001056Y+003927
X+001056Y+002927
X+000056Y+003927
X+000056Y+002927
X-000943Y+003927
X-000943Y+002927
X-001943Y+003927
X-001943Y+002927
X-002943Y+003927
X-002943Y+002927
X-003943Y+003927
X-003943Y+002927
X-004943Y+003927
X-004943Y+002927
X-005943Y+003927
X-005943Y+002927
X-006943Y+003927
X-006943Y+002927
X-007943Y+003927
X-007943Y+002927
X-008943Y+003927
X-008943Y+002927
X-009943Y+003927
X-009943Y+002927
X-010943Y+003927
X-010943Y+002927
X-011943Y+003927
X-011943Y+002927
X-011258Y-018857
X-011258Y-017857
X-011258Y-016857
X-011258Y-015857
X-011258Y-014857
X-011258Y-013857
X-011258Y-012857
X-011258Y-011857
X-011258Y-010857
X-011258Y-009857
X+018212Y+017559
X+018212Y+016559
X+017212Y+017559
X+017212Y+016559
X+016212Y+017559
X+016212Y+016559
X+015212Y+017559
X+015212Y+016559
X+014212Y+017559
X+014212Y+016559
X+013212Y+017559
X+013212Y+016559
X+012212Y+017559
X+012212Y+016559
X+011212Y+017559
X+011212Y+016559
X+010212Y+017559
X+010212Y+016559
X+009212Y+017559
X+009212Y+016559
X+007602Y-000023
X+007562Y-001992
X+004649Y-000023
X+004649Y-001992
X+005633Y-000023
X+005633Y-001992
X+003665Y-000023
X+003665Y-001992
X+007582Y-003098
X+007543Y-005066
X+004629Y-003098
X+004629Y-005066
X+005614Y-003098
X+005614Y-005066
X+003645Y-003098
X+003645Y-005066
X+007582Y-006153
X+007543Y-008122
X+004629Y-006153
X+004629Y-008122
X+005614Y-006153
X+005614Y-008122
X+003645Y-006153
X+003645Y-008122
X+007566Y-009216
X+007527Y-011185
X+004614Y-009216
X+004614Y-011185
X+005598Y-009216
X+005598Y-011185
X+003629Y-009216
X+003629Y-011185
X+007562Y-012279
X+007523Y-014248
X+004610Y-012279
X+004610Y-014248
X+005594Y-012279
X+005594Y-014248
X+003625Y-012279
X+003625Y-014248
X+007562Y-015342
X+007523Y-017311
X+004610Y-015342
X+004610Y-017311
X+005594Y-015342
X+005594Y-017311
X+003625Y-015342
X+003625Y-017311
X+007555Y-018362
X+007515Y-020330
X+004602Y-018362
X+004602Y-020330
X+005586Y-018362
X+005586Y-020330
X+003618Y-018362
X+003618Y-020330
X+007551Y-021421
X+007511Y-023389
X+004598Y-021421
X+004598Y-023389
X+005582Y-021421
X+005582Y-023389
X+003614Y-021421
X+003614Y-023389
X+023822Y-019806
X+024822Y-019806
X+025822Y-019806
X+026822Y-019806
X+027822Y-019806
X+028822Y-019806
X+007569Y-024464
X+007529Y-026432
X+004616Y-024464
X+004616Y-026432
X+005600Y-024464
X+005600Y-026432
X+003632Y-024464
X+003632Y-026432
X+002321Y-037180
X+003321Y-037180
X+004321Y-037180
X+007555Y-027503
X+007515Y-029472
X+004602Y-027503
X+004602Y-029472
X+005586Y-027503
X+005586Y-029472
X+003618Y-027503
X+003618Y-029472
X+009997Y-017585
X+009997Y-018585
X+009997Y-019585
X+009997Y-020585
X+009997Y-021585
X+009997Y-022585
X-032976Y-020023
X-032976Y-021023
X-033976Y-020023
X-033976Y-021023
X-034976Y-020023
X-034976Y-021023
X-035976Y-020023
X-035976Y-021023
X-036976Y-020023
X-036976Y-021023
X-037976Y-020023
X-037976Y-021023
X-038976Y-020023
X-038976Y-021023
X-039976Y-020023
X-039976Y-021023
X-030472Y-021496
X-030472Y-022496
X-030472Y-023496
X-030472Y-024496
X-030472Y-025496
X-030472Y-026496
X-030472Y-027496
X-030472Y-028496
X-030472Y-029496
X-030472Y-030496
X-030472Y-031496
X-030472Y-032496
X-030472Y-033496
X-030472Y-034496
X-030472Y-035496
X-024347Y-021478
X-024347Y-022478
X-024347Y-023478
X-024347Y-024478
X-024347Y-025478
X-024347Y-026478
X-024347Y-027478
X-024347Y-028478
X-024347Y-029478
X-024347Y-030478
X-024347Y-031478
X-024347Y-032478
X-024347Y-033478
X-024347Y-034478
X-024347Y-035478
X+013061Y-029669
X+028840Y-029629
X+013057Y-036170
X+028779Y-036141
X+010890Y-029990
X+010890Y-030990
X+010890Y-031990
X-034110Y-010660
X-033810Y-017480
X-047387Y+029125
X-045586Y+029135
X+026130Y+022710
X+025130Y+022710
X+024130Y+022710
X+023130Y+022710
X+022130Y+022710
X+021130Y+022710
X+034606Y-035472
X+035606Y-035472
X+007558Y-030610
X+007519Y-032578
X+004605Y-030610
X+004605Y-032578
X+005590Y-030610
X+005590Y-032578
X+003621Y-030610
X+003621Y-032578
X-024430Y-015750
X-025430Y-015750
X-026430Y-015750
X-027430Y-015750
X-027430Y-016750
X-026430Y-016750
X-025430Y-016750
X-024430Y-016750
T03
X-037800Y+015803
X-035800Y+015803
X+003401Y+027519
X+002321Y+027519
X+001241Y+027519
X+000161Y+027519
X-000918Y+027519
X+002861Y+028519
X+001781Y+028519
X+000701Y+028519
X-000378Y+028519
X+033182Y+002275
X+033182Y+001275
X+033182Y+000275
X+033182Y-000724
X+036182Y-000724
X+036182Y+000275
X+036182Y+001275
X+036182Y+002275
X-011732Y-004842
X-011732Y-006842
X+012919Y+005009
X+013919Y+005009
X+014919Y+005009
X+015919Y+005009
X+015919Y+008009
X+014919Y+008009
X+013919Y+008009
X+012919Y+008009
X+017643Y+004969
X+018643Y+004969
X+019643Y+004969
X+020643Y+004969
X+020643Y+007969
X+019643Y+007969
X+018643Y+007969
X+017643Y+007969
X+022305Y+004985
X+023305Y+004985
X+024305Y+004985
X+025305Y+004985
X+025305Y+007985
X+024305Y+007985
X+023305Y+007985
X+022305Y+007985
X+027108Y+004985
X+028108Y+004985
X+029108Y+004985
X+030108Y+004985
X+030108Y+007985
X+029108Y+007985
X+028108Y+007985
X+027108Y+007985
X+033206Y+007111
X+033206Y+006111
X+033206Y+005111
X+033206Y+004111
X+036206Y+004111
X+036206Y+005111
X+036206Y+006111
X+036206Y+007111
X+033234Y-002494
X+033234Y-003494
X+033234Y-004494
X+033234Y-005494
X+036234Y-005494
X+036234Y-004494
X+036234Y-003494
X+036234Y-002494
X+033194Y-007195
X+033194Y-008195
X+033194Y-009195
X+033194Y-010195
X+036194Y-010195
X+036194Y-009195
X+036194Y-008195
X+036194Y-007195
X+033202Y-011860
X+033202Y-012860
X+033202Y-013860
X+033202Y-014860
X+036202Y-014860
X+036202Y-013860
X+036202Y-012860
X+036202Y-011860
X+033202Y-016534
X+033202Y-017534
X+033202Y-018534
X+033202Y-019534
X+036202Y-019534
X+036202Y-018534
X+036202Y-017534
X+036202Y-016534
X+034973Y+015447
X+034973Y+017447
X+034973Y+016447
X-012720Y+023794
X-011630Y+023794
X-010550Y+023794
X-009460Y+023794
X-008370Y+023794
X-007290Y+023794
X-006200Y+023794
X-005110Y+023794
X-004030Y+023794
X-002940Y+023794
X-001850Y+023794
X-000770Y+023794
X+000320Y+023794
X-012180Y+024794
X-011090Y+024794
X-010010Y+024794
X-008920Y+024794
X-007830Y+024794
X-006750Y+024794
X-005660Y+024794
X-004570Y+024794
X-003490Y+024794
X-002400Y+024794
X-001310Y+024794
X-000230Y+024794
X-008320Y+018430
X-008320Y+014430
X-005990Y+018450
X-005990Y+014450
X-010030Y+020670
X-014030Y+020670
X-001217Y+020768
X-005217Y+020768
X+007139Y+020779
X+003139Y+020779
X+033090Y+015420
X+033090Y+017420
X+033090Y+016420
T04
X-021979Y+024416
X-021959Y-004973
X-027939Y+004496
X-038899Y+004496
X-040879Y-007443
X-044842Y-029055
X-005393Y-029055
X+033976Y-029055
X+033976Y+021732
X-044803Y+021653
X-043256Y-010063
X-019909Y-010102
X-019909Y+023558
X-003678Y+028019
X+006161Y+028019
X-015450Y+024294
X+003050Y+024294
X+013560Y+021710
X+012598Y+010984
X+036259Y+011023
X+012637Y-025314
X+036220Y-025118
X+032086Y+027952
T05
X-023236Y+026439
X-022252Y+026439
X-022252Y+027226
X-023236Y+027226
X+023575Y+024900
X+023075Y+025900
X+022575Y+024900
X+022075Y+025900
X+021575Y+024900
X+021075Y+025900
X-037290Y+026391
X-036306Y+026391
X-036306Y+027179
X-037290Y+027179
T06
X-020374Y+028293
X-025114Y+028293
X+026945Y+028337
X+028520Y+028337
X+035039Y+028385
X+036614Y+028385
X+024075Y+028400
X+020575Y+028400
X-034428Y+028246
X-039168Y+028246
X+028160Y-023780
X+029734Y-023780
T07
X-018051Y-023425
T08
X-018051Y-013188
T09
X-006220Y+029173
X-017980Y-021150
T10
X-047870Y+028230
X-045074Y+028230
M30
